PathFileType	4	(X/Y/Z)	S01_0005_Gait_markers.trc
DataRate	CameraRate	NumFrames	NumMarkers	Units	OrigDataRate	OrigDataStartFrame	OrigNumFrames
250.000000	250.000000	4	54	mm	250.000000	243	324
Frame#	Time	HEAD_ANT			R_HEAD			L_HEAD			C7			R_BACK			L_BACK			STERNUM			R_ACROMION			R_HUM_PROX			R_HUM_ANT			R_HUM_POST			R_ELBOW_LAT			R_ELBOW_MED			R_FOREARM			R_WIRST_LAT			R_WRITS_MED			R_HAND			L_ACROMION			L_HUM_PROX			L_HUM_ANT			L_HUM_POST			L_ELBOW_LAT			L_ELBOW_MED			L_FOREARM			L_WRIST_LAT			L_WIRST_MED			L_HAND			R_ILIAC			SACRUM			L_ILIAC			R_GTROCH			R_THIGH__1			R_THIGH_2			R_THIGH_3			R_THIGH_4			R_SHANK_1			R_SHANK_2			R_SHANK_3			R_SHANK_4			R_HEEL			R_FOOT_LAT			R_FOOT_MED			L_GTROCH			L_THIGH_1			L_THIGH_2			L_THIGH_3			L_THIGH_4			L_SHANK_1			L_SHANK_2			L_SHANK_3			L_SHANK_4			L_HEEL			L_FOOT_LAT			L_FOOT_MED			
		X1	Y1	Z1	X2	Y2	Z2	X3	Y3	Z3	X4	Y4	Z4	X5	Y5	Z5	X6	Y6	Z6	X7	Y7	Z7	X8	Y8	Z8	X9	Y9	Z9	X10	Y10	Z10	X11	Y11	Z11	X12	Y12	Z12	X13	Y13	Z13	X14	Y14	Z14	X15	Y15	Z15	X16	Y16	Z16	X17	Y17	Z17	X18	Y18	Z18	X19	Y19	Z19	X20	Y20	Z20	X21	Y21	Z21	X22	Y22	Z22	X23	Y23	Z23	X24	Y24	Z24	X25	Y25	Z25	X26	Y26	Z26	X27	Y27	Z27	X28	Y28	Z28	X29	Y29	Z29	X30	Y30	Z30	X31	Y31	Z31	X32	Y32	Z32	X33	Y33	Z33	X34	Y34	Z34	X35	Y35	Z35	X36	Y36	Z36	X37	Y37	Z37	X38	Y38	Z38	X39	Y39	Z39	X40	Y40	Z40	X41	Y41	Z41	X42	Y42	Z42	X43	Y43	Z43	X44	Y44	Z44	X45	Y45	Z45	X46	Y46	Z46	X47	Y47	Z47	X48	Y48	Z48	X49	Y49	Z49	X50	Y50	Z50	X51	Y51	Z51	X52	Y52	Z52	X53	Y53	Z53	X54	Y54	Z54	

244	0.972	1552.721801757812	1748.921630859375	-335.472015380859	1494.464233398438	1696.036865234375	-259.5955810546871	1494.371215820312	1703.491577148438	-407.9027404785152	1358.854125976562	1528.0498046875	-341.6777648925778	1287.505981445312	1331.944213867188	-270.9072570800778	1287.413940429688	1334.447998046875	-414.9718627929685	1534.249755859375	1366.941040039062	-332.7270202636716	1433.426879882812	1481.97802734375	-165.6115112304684	1387.357666015625	1323.948974609375	-71.36804962158173	1446.3916015625	1236.13818359375	-68.5240402221677	1325.0771484375	1243.974365234375	-59.68320846557589	1366.060668945312	1135.357177734375	-50.41691589355444	1344.541870117188	1130.779418945312	-131.3307952880857	1468.852661132812	952.6639404296875	-49.17818069457986	1505.469604492188	886.45947265625	-90.70996856689433	1439.142822265625	862.6099243164062	-47.4843978881834	1512.260620117188	797.994140625	-32.9447822570799	1445.639770507812	1480.4853515625	-505.5407104492184	1434.1943359375	1313.443725585938	-602.3319702148434	1497.529174804688	1234.321166992188	-596.172180175781	1379.565673828125	1234.802490234375	-633.4945678710935	1442.737182617188	1130.565795898438	-632.9549560546873	1384.897705078125	1123.493896484375	-582.1597900390623	1562.102172851562	968.8396606445314	-593.9821166992185	1591.645751953125	913.2301025390626	-536.4638061523435	1558.354370117188	884.8249511718751	-603.2414550781248	1636.847045898438	836.7031860351564	-575.544250488281	1433.017211914062	1082.667358398438	-166.0255279541013	1308.53466796875	1050.767944335938	-332.1004638671873	1425.329345703125	1073.435302734375	-509.3644714355466	1400.684814453125	931.1809692382812	-145.4066772460936	1518.419067382812	663.8665161132812	-164.5653839111327	1569.424926757812	694.6890258789062	-161.7177124023436	1600.442016601562	596.067626953125	-192.5612487792967	1538.111450195312	586.0289306640625	-183.9835510253905	1529.124877929688	368.2336730957032	-178.4197845458984	1584.348266601562	346.0910644531251	-190.1845703124999	1579.859741210938	260.9398498535157	-207.8921203613281	1516.111083984375	268.9873962402344	-198.4858703613281	1482.796264648438	53.99920654296881	-283.1407775878906	1638.56884765625	30.48547744750981	-187.7737731933594	1695.180419921875	54.30084228515631	-270.2395629882812	1385.293334960938	960.7103881835939	-509.5580444335935	1428.926635742188	670.0633544921876	-492.5416259765623	1377.17529296875	696.2855834960939	-505.1637878417967	1347.737915039062	599.3929443359376	-472.2862854003905	1410.67138671875	591.8508911132814	-465.9249572753905	1319.414428710938	332.3534240722657	-451.6882324218749	1259.433959960938	321.294891357422	-453.6044311523437	1241.048828125	237.6336212158204	-434.1603088378906	1304.530639648438	232.567123413086	-425.8198242187499	1167.387573242188	62.25267791748055	-358.0304565429688	1336.275146484375	21.38007545471201	-434.5678405761719	1378.160034179688	26.11412048339851	-330.6984558105469	
245	0.976	1557.8427734375	1748.189575195312	-335.602386474609	1500.579833984375	1695.1435546875	-258.7576904296871	1499.855712890625	1702.772338867188	-407.5905151367184	1364.240112304688	1527.482177734375	-341.7311096191403	1292.380859375	1331.353637695312	-271.3509826660153	1292.583618164062	1333.74755859375	-414.8910217285153	1539.688842773438	1366.043823242188	-332.4366760253903	1438.638061523438	1481.132202148438	-165.37629699707	1392.436889648438	1323.072998046875	-71.35253143310517	1451.21484375	1235.15673828125	-68.36734771728489	1329.992797851562	1243.015258789062	-59.94121551513644	1371.158447265625	1134.374755859375	-50.62962341308569	1349.729736328125	1130.007568359375	-131.5806884765622	1473.9658203125	952.0708618164062	-48.69871139526346	1510.65283203125	885.8043823242188	-89.75493621826152	1444.140991210938	861.8011474609375	-46.90184402465801	1517.263427734375	797.3433227539062	-32.05479049682599	1451.168701171875	1479.578857421875	-505.2763671874997	1439.90576171875	1312.740234375	-602.1525878906247	1503.488037109375	1233.767456054688	-595.9641113281248	1385.655639648438	1234.114868164063	-633.603332519531	1448.778198242188	1130.100341796875	-632.934875488281	1390.792236328125	1122.654907226563	-582.3834838867185	1568.809814453125	968.6948852539064	-593.4332885742185	1598.38818359375	913.0985107421876	-535.5424194335935	1565.425415039062	884.6098632812501	-602.7489013671873	1644.061767578125	836.7896728515626	-574.677062988281	1438.47314453125	1081.8505859375	-165.9825439453123	1314.251831054688	1049.913452148438	-331.8114013671873	1430.651245117188	1072.654174804688	-509.393127441406	1406.240600585938	930.4712524414062	-145.3718109130857	1523.358276367188	663.025390625	-164.4200439453124	1574.348754882812	694.0540161132812	-161.5448913574217	1605.546508789062	595.3549194335938	-192.5333099365233	1543.36572265625	585.16943359375	-184.0480346679686	1538.149291992188	366.6415405273438	-178.8097839355468	1594.0380859375	345.7985839843751	-190.0412445068359	1591.663208007812	260.4575500488282	-207.7690124511718	1527.648681640625	267.0335388183594	-198.944839477539	1500.1826171875	51.30779266357428	-283.6683959960938	1656.272216796875	31.05547714233403	-187.8543090820312	1712.296997070312	56.27960205078131	-270.3602600097656	1390.462646484375	960.4071044921876	-509.4040832519529	1431.619018554688	669.5656127929689	-492.6278991699217	1380.039428710938	696.3743896484376	-505.5036621093748	1350.09033203125	599.5268554687501	-472.115020751953	1413.058837890625	591.5842895507814	-465.8177490234374	1320.222290039062	332.5486450195314	-451.6581726074218	1260.374389648438	321.7782592773439	-453.4755554199218	1241.526733398438	238.1421356201173	-433.8712463378906	1305.172729492188	232.885223388672	-425.7687072753906	1166.98583984375	63.18274307250984	-358.6564636230469	1336.043212890625	21.45043182373056	-434.4061279296875	1378.214965820312	26.17419052124031	-330.7724914550781	
246	0.98	1563.313842773438	1747.335693359375	-335.0715637207027	1505.9619140625	1694.18212890625	-258.3102111816402	1505.3330078125	1702.177612304688	-407.2666320800777	1369.650512695312	1526.694702148438	-341.4119262695309	1297.291259765625	1330.542602539062	-271.2461242675778	1298.1259765625	1332.94189453125	-414.9088745117185	1545.008056640625	1365.12158203125	-332.3085021972653	1443.9033203125	1480.271728515625	-165.2752532958981	1397.500366210938	1322.106567382812	-71.47495269775361	1456.053588867188	1234.20654296875	-68.29839324951145	1334.859252929688	1242.1279296875	-60.22741699218722	1375.724975585938	1133.324340820312	-50.73223114013647	1354.986938476562	1129.18505859375	-131.9807891845701	1478.674560546875	951.2199096679688	-48.06741714477518	1515.834228515625	884.9871215820312	-88.83632659912089	1449.189208984375	860.8925170898438	-46.42943954467754	1522.259643554688	796.5379028320312	-31.06762886047346	1456.71728515625	1478.923706054688	-505.0899963378903	1445.972534179688	1312.100341796875	-602.0988159179684	1509.451049804688	1233.064208984375	-595.797424316406	1391.793579101562	1233.346557617188	-633.5893554687498	1455.01806640625	1129.399047851563	-632.397033691406	1396.780395507812	1121.854125976563	-582.338195800781	1575.462036132812	968.2899169921876	-592.861633300781	1605.019897460938	912.9533081054689	-534.987121582031	1572.447143554688	884.3139648437501	-602.095031738281	1651.155029296875	836.8917236328126	-573.8734741210935	1443.914916992188	1081.09228515625	-165.7872161865232	1319.203735351562	1049.162719726562	-331.6076660156248	1436.288330078125	1071.92236328125	-509.3079528808591	1411.715087890625	929.658447265625	-145.5287933349607	1528.358520507812	662.159912109375	-164.8310546874999	1579.332275390625	693.0604248046875	-161.3802185058592	1610.558715820312	594.4771118164062	-192.4352111816405	1548.572631835938	584.383056640625	-184.1797485351561	1547.244384765625	365.0219116210938	-179.269073486328	1603.725341796875	345.4563903808594	-190.0480499267577	1603.430419921875	259.8799133300782	-207.9807434082031	1539.309448242188	265.2230834960938	-199.3213500976562	1517.451293945312	48.9550743103028	-284.0375061035156	1673.618530273438	31.74914550781254	-188.1057281494141	1729.434326171875	58.47365570068365	-270.1738891601562	1395.459716796875	959.8946533203126	-509.1224975585935	1434.326782226562	669.3439941406251	-492.9531860351561	1382.844970703125	696.3197631835939	-505.3397521972655	1352.138061523438	599.7369995117189	-472.0923767089843	1415.2060546875	591.3713989257814	-466.4617614746093	1321.255126953125	332.7705383300782	-451.5624084472656	1261.204467773438	322.382537841797	-453.2236328124999	1242.185668945312	238.6731262207032	-433.5809631347656	1305.849609375	233.1684875488282	-425.7563781738281	1167.143676757812	63.81600570678719	-358.1889953613281	1335.825073242188	21.42573547363291	-434.3052673339844	1378.31298828125	26.16085815429695	-330.8219299316406	
247	0.984	1568.831909179688	1746.530029296875	-334.6161499023434	1511.422729492188	1693.355102539062	-257.9126586914059	1510.77880859375	1701.323120117188	-406.8202514648434	1375.000854492188	1525.619995117188	-341.3604736328122	1302.8876953125	1329.591552734375	-271.1719970703122	1303.647705078125	1332.171264648438	-414.9804382324216	1550.516723632812	1364.199584960938	-332.1183776855466	1449.2265625	1479.276977539062	-165.0816497802731	1402.4423828125	1321.107177734375	-71.45591735839814	1460.75	1233.19140625	-67.59963226318332	1339.611328125	1241.05224609375	-60.30698776245089	1380.42138671875	1132.407348632812	-50.97975540161108	1360.337890625	1127.929809570312	-132.5160522460935	1483.50537109375	950.1538696289062	-47.21874999999979	1521.067749023438	884.1613159179688	-88.1596679687498	1454.131713867188	860.0153198242188	-45.96380233764629	1527.269653320312	795.7857666015625	-30.07070922851545	1462.357788085938	1478.0986328125	-504.9037780761715	1451.787475585938	1311.448852539063	-601.9768066406247	1515.478393554688	1232.40185546875	-595.3828124999998	1397.810302734375	1232.5205078125	-633.4821777343748	1461.280883789062	1128.7197265625	-632.8656005859373	1403.201049804688	1120.897827148438	-582.268615722656	1582.149169921875	967.9909667968751	-592.389221191406	1611.822509765625	912.8776855468751	-534.276916503906	1579.480346679688	884.0662231445314	-601.399719238281	1658.151611328125	836.9509277343751	-572.9080810546873	1449.487060546875	1080.249633789062	-165.8339843749998	1325.244018554688	1048.384887695312	-331.0676574707029	1441.921264648438	1071.022583007812	-509.2261962890623	1417.2021484375	928.6578979492188	-145.7015380859373	1533.311401367188	661.0033569335938	-165.0221710205077	1584.223022460938	692.0449829101562	-161.4347229003905	1615.6044921875	593.6026000976562	-192.288116455078	1553.563110351562	583.287109375	-184.1866455078124	1556.486694335938	363.2677917480469	-179.4216918945312	1613.290283203125	345.2916564941407	-190.1520233154296	1615.04931640625	259.9192504882813	-207.9430999755859	1550.935791015625	263.5465087890626	-199.5884552001953	1534.442504882812	46.7510719299317	-284.6170959472656	1691.033081054688	32.76803207397465	-188.1544036865234	1746.356201171875	60.89497756958013	-270.2439270019531	1400.640380859375	959.4610595703126	-508.7368469238279	1436.829467773438	668.7368774414064	-492.7816772460936	1385.550048828125	696.2048339843751	-505.270050048828	1354.6455078125	599.9539794921876	-472.0238647460936	1417.346313476562	591.2669067382814	-466.3282775878905	1322.24658203125	333.1430664062501	-451.4927978515624	1261.953002929688	322.8585815429689	-453.0015563964843	1242.95556640625	239.2029113769532	-433.3582458496093	1306.466186523438	233.4749298095704	-425.6342163085937	1167.896362304688	64.43701934814462	-356.6667785644531	1335.589477539062	21.42718696594248	-434.1997985839844	1378.408569335938	26.18371772766121	-330.8252563476562	
